# xmcd CD database file
#
# Track frame offsets:
#	180
#	14498
#	28265
#	43899
#	60484
#	74932
#	94791
#	109611
#	124397
#	138177
#	151504
#
# Disc length: 2206 seconds
#
# Revision: 0
# Processed by: cddbd v1.5.2PL0 Copyright (c) Steve Scherf et al.
# Submitted via: CDex 1.51
#
DISCID=99089c0b
DTITLE=Larry Dean - From A Distance
DYEAR=1995
DGENRE=Country
TTITLE0=I'm Gettin' Known (For All The Wrong Reasons)
TTITLE1=Things Are Lookin' Up
TTITLE2=Sweet Magnolia
TTITLE3=From A Distance
TTITLE4=It Must Be Angel Day
TTITLE5=Sometimes Love Ain't Enough
TTITLE6=Are You Listening
TTITLE7=Brown Paper Bag - Cheap California Wine
TTITLE8=Dirt Road
TTITLE9=Turning My Blues Into Green
TTITLE10=Twilight On The Trail
EXTD=YEAR: 1995
EXTT0=
EXTT1=
EXTT2=
EXTT3=
EXTT4=
EXTT5=
EXTT6=
EXTT7=
EXTT8=
EXTT9=
EXTT10=
PLAYORDER=
